<svg width="100%" height="100%" viewBox="0 0 712 167" fill="none" xmlns="http://www.w3.org/2000/svg">
<g clip-path="url(#clip0_337_20916)">
<mask id="mask0_337_20916" style="mask-type:luminance" maskUnits="userSpaceOnUse" x="360" y="-1" width="137" height="168">
<path d="M496.733 -0.00195312H360.44V166.634H496.733V-0.00195312Z" fill="white"/>
</mask>
<g mask="url(#mask0_337_20916)">
<path d="M428.572 166.634L420.719 158.679L468.917 109.872C479.258 99.402 485.663 84.9574 485.663 69.0195C485.663 37.1496 460.06 11.2179 428.589 11.2179C397.119 11.2179 371.522 37.1438 371.522 69.0137C371.522 84.9167 377.915 99.3845 388.156 109.762C389.184 110.808 389.856 112.243 389.856 113.817C389.856 116.903 387.374 119.419 384.315 119.419C382.767 119.419 381.384 118.797 380.344 117.74C368.071 105.329 360.44 88.0427 360.44 69.0137C360.44 30.8976 390.953 -0.00195312 428.584 -0.00195312C466.214 -0.00195312 496.733 30.8976 496.733 69.0137C496.733 88.0543 489.113 105.299 476.799 117.786L428.572 166.628V166.634Z" fill="#D51125"/>
<path d="M476.689 68.7333C476.689 41.7209 454.992 19.7402 428.315 19.7402C401.638 19.7402 379.947 41.7267 379.947 68.7333C379.947 82.2134 385.436 94.5546 394.071 103.299C394.696 103.933 395.467 104.426 396.325 104.711C396.868 104.897 397.452 104.996 398.059 104.996C401.124 104.996 403.606 102.48 403.606 99.3714C403.606 97.7678 402.934 96.321 401.872 95.2925C395.186 88.4712 391.041 79.0758 391.041 68.7217C391.041 47.9089 407.769 30.9717 428.315 30.9717C448.861 30.9717 465.595 47.9089 465.595 68.7217C465.595 79.1281 461.409 88.5641 454.665 95.3971L406.356 144.332L414.203 152.281L462.565 103.288C471.294 94.4152 476.689 82.2018 476.689 68.7217V68.7333Z" fill="#D51125"/>
<path fill-rule="evenodd" clip-rule="evenodd" d="M410.834 68.5715C410.834 58.8856 418.617 50.9951 428.187 50.9951C437.756 50.9951 445.545 58.8798 445.545 68.5715C445.545 78.2632 437.762 86.1421 428.187 86.1421C418.611 86.1421 410.834 78.2632 410.834 68.5715ZM456.65 68.5715C456.65 52.6859 443.881 39.7637 428.187 39.7637C412.492 39.7637 399.729 52.6859 399.729 68.5715C399.729 84.4571 412.498 97.3794 428.187 97.3794C443.875 97.3794 456.65 84.4571 456.65 68.5715Z" fill="#D51125"/>
</g>
<path d="M508.007 58.0866L512.813 31.998L516.327 32.0039L523.211 48.7958L530.475 32.0329L533.989 32.0387L538.269 58.1505L533.213 58.1389L530.866 42.1836L523.813 58.534L522.47 58.5282L515.79 42.3579L513.069 58.0982L508.007 58.0866Z" fill="#D51125"/>
<path d="M549.847 54.5477C551.19 54.5477 552.329 54.141 553.257 53.2055C554.086 52.3804 554.606 51.2416 554.606 49.8936C554.606 48.5456 554.092 47.5113 553.269 46.5759C552.34 45.6404 551.208 45.2279 549.865 45.1175C548.522 45.1175 547.383 45.6288 546.554 46.5584C545.62 47.4881 545.206 48.5223 545.206 49.8703C545.206 51.2184 545.614 52.3572 546.543 53.2927C547.366 54.1235 548.504 54.6407 549.847 54.5419V54.5477ZM549.877 40.9805C551.219 40.9805 552.457 41.1955 553.596 41.608C554.728 42.0263 555.762 42.5435 556.69 43.3743C557.514 44.2052 558.132 45.1407 558.646 46.2795C559.16 47.4184 559.469 48.5572 559.464 49.9052C559.464 51.2532 559.148 52.4966 558.629 53.6297C558.109 54.6639 557.49 55.6982 556.556 56.4244C555.727 57.2495 554.693 57.7666 553.555 58.1792C552.416 58.5917 551.179 58.7951 549.836 58.7951C548.493 58.7951 547.255 58.5801 546.116 58.1676C544.984 57.7492 543.95 57.2321 543.127 56.4012C542.304 55.6749 541.58 54.6349 541.066 53.6006C540.552 52.4618 540.348 51.2184 540.354 49.8703C540.354 48.5223 540.564 47.3835 541.083 46.2447C541.603 45.1058 542.327 44.1762 543.156 43.3511C543.985 42.526 545.019 42.0089 546.157 41.5964C547.296 41.1838 548.534 40.9805 549.877 40.9805Z" fill="#D51125"/>
<path d="M575.695 42.0674L575.683 46.6227C575.17 46.2102 574.65 45.8964 574.031 45.5827C573.307 45.3735 572.688 45.1643 571.865 45.1643C570.417 45.1643 569.284 45.6756 568.455 46.6053C567.521 47.535 567.212 48.5692 567.212 49.9172C567.212 51.2652 567.62 52.4041 568.549 53.3395C569.477 54.1704 570.61 54.5888 572.058 54.5888C572.677 54.5888 573.295 54.49 574.019 54.2808C574.638 54.0774 575.158 53.6591 575.672 53.1478L575.66 57.8077C575.041 58.1157 574.317 58.3248 573.593 58.5282C572.869 58.7316 572.145 58.8361 571.421 58.8361C570.183 58.7316 568.946 58.5224 567.807 58.104C566.674 57.6857 565.746 57.064 564.917 56.3377C564.094 55.6114 563.475 54.6759 562.961 53.5371C562.552 52.5028 562.348 51.2594 562.348 50.016C562.348 48.5634 562.558 47.2212 563.078 46.0824C563.597 44.9435 564.321 44.0139 565.256 43.1888C566.085 42.4683 567.013 41.9512 568.046 41.5387C568.975 41.2307 570.113 41.0273 571.252 41.0273C572.081 41.0273 572.904 41.1319 573.628 41.3411C574.352 41.4457 575.07 41.7595 575.695 42.0732V42.0674Z" fill="#D51125"/>
<path d="M579.928 41.5605L584.576 41.5664L584.564 48.0914L590.876 41.5838L596.662 41.5954L589.107 49.0327L597.041 58.2712L591.051 58.2538L585.276 51.4091L584.552 52.1296L584.541 58.2421L579.893 58.2305L579.928 41.5605Z" fill="#D51125"/>
<path d="M606.547 54.6629C607.89 54.6629 609.029 54.2562 609.957 53.3207C610.786 52.4957 611.306 51.3568 611.306 50.0088C611.306 48.6608 610.792 47.6266 609.969 46.6911C609.04 45.7556 607.907 45.3431 606.565 45.2327C605.222 45.2327 604.083 45.744 603.254 46.6737C602.32 47.6033 601.905 48.6376 601.905 49.9856C601.905 51.3336 602.314 52.4724 603.242 53.4079C604.066 54.2388 605.204 54.7559 606.547 54.6571V54.6629ZM606.576 41.0957C607.919 41.0957 609.157 41.3107 610.296 41.7232C611.428 42.1416 612.462 42.6587 613.39 43.4896C614.213 44.3205 614.832 45.2559 615.346 46.3948C615.86 47.5336 616.169 48.6724 616.163 50.0204C616.163 51.3684 615.848 52.6119 615.328 53.7449C614.809 54.7791 614.19 55.8134 613.361 56.5397C612.427 57.3647 611.393 57.8819 610.26 58.2944C609.122 58.7069 607.884 58.9103 606.541 58.9103C605.198 58.9103 603.961 58.6953 602.822 58.2828C601.689 57.8644 600.761 57.3473 599.833 56.5164C599.009 55.7901 598.285 54.7501 597.772 53.7158C597.258 52.577 597.053 51.3336 597.059 49.9856C597.059 48.6376 597.269 47.4987 597.789 46.3599C598.309 45.2211 599.033 44.2914 599.862 43.4663C600.796 42.6413 601.724 42.1241 602.863 41.7116C604.001 41.2991 605.239 41.0957 606.582 41.0957H606.576Z" fill="#D51125"/>
<path d="M624.11 54.7004H626.381C626.795 54.7004 627.105 54.6016 627.414 54.6016C627.619 54.497 627.934 54.3983 628.138 54.2937C628.243 54.0845 628.448 53.9857 628.553 53.672C628.658 53.4628 628.658 53.1548 628.658 52.9457C628.658 52.6377 628.658 52.4285 628.559 52.2194C628.454 52.0102 628.249 51.9056 628.144 51.7022C627.94 51.5977 627.73 51.4931 627.42 51.4931C627.111 51.3885 626.801 51.3885 626.492 51.2839H624.116L624.11 54.6946V54.7004ZM624.121 48.2799H626.288L627.012 48.2857C627.216 48.1812 627.426 48.0766 627.531 47.9778C627.736 47.8732 627.946 47.7744 628.051 47.5653C628.156 47.3561 628.156 47.1527 628.156 46.839C628.156 46.6298 628.156 46.4264 628.057 46.2172C627.952 46.0081 627.852 45.8047 627.642 45.7001C627.537 45.5955 627.333 45.4909 627.128 45.4909C627.023 45.4909 626.714 45.3864 626.305 45.3864H624.139L624.133 48.2799H624.121ZM619.485 41.6445L626.819 41.6619C627.852 41.6619 628.576 41.7665 629.195 41.9757C629.814 42.0803 630.328 42.394 630.848 42.702C631.262 43.1145 631.671 43.5329 631.98 44.1546C632.29 44.6717 632.389 45.2934 632.389 46.0197C632.389 46.746 632.179 47.3677 631.764 47.9836C631.35 48.6053 630.83 49.1224 630.106 49.4304C630.521 49.535 630.83 49.6396 631.239 49.8487C631.653 50.0579 631.963 50.2671 632.272 50.4704C632.687 50.883 632.996 51.4059 633.201 51.923C633.405 52.4402 633.51 52.9573 633.504 53.579C633.504 54.4099 633.399 55.1304 633.084 55.7521C632.768 56.3738 632.255 56.8909 631.735 57.3034C631.32 57.716 630.702 57.9252 630.083 58.1285C629.464 58.3319 628.74 58.3319 628.016 58.3319L619.445 58.3144L619.48 41.6387L619.485 41.6445Z" fill="#D51125"/>
<path d="M649.543 42.2256L649.531 46.7809C649.017 46.3684 648.399 46.0546 647.78 45.7409C647.161 45.5317 646.437 45.3225 645.713 45.3225C644.166 45.3225 643.027 45.8339 642.198 46.7635C641.369 47.6932 640.954 48.7274 640.954 50.0754C640.954 51.4234 641.468 52.5623 642.291 53.4977C643.22 54.3286 644.352 54.747 645.8 54.747C646.524 54.747 647.143 54.6482 647.762 54.439C648.381 54.2357 649 53.8173 649.52 53.306L649.508 57.9659C648.784 58.2739 648.165 58.483 647.441 58.6864C646.717 58.8898 645.993 58.9944 645.17 58.9944C643.932 58.8898 642.694 58.6806 641.556 58.2622C640.423 57.8439 639.495 57.2222 638.771 56.4959C637.947 55.7696 637.223 54.8341 636.815 53.6953C636.301 52.661 636.096 51.4176 636.096 50.1742C636.096 48.7216 636.412 47.3794 636.931 46.2406C637.451 45.1017 638.07 44.1721 639.004 43.347C639.833 42.6265 640.762 42.1094 641.795 41.6969C642.828 41.3889 643.862 41.1855 645 41.1855C645.83 41.1855 646.653 41.2901 647.377 41.4993C648.101 41.6039 648.825 41.9177 649.543 42.2314V42.2256Z" fill="#D51125"/>
<path d="M653.467 41.7129L658.114 41.7245L658.103 48.2438L664.309 41.7361L670.2 41.7478L662.645 49.1908L670.58 58.4235L664.589 58.4119L658.815 51.5615L658.091 52.2878L658.079 58.3945L653.432 58.3887L653.467 41.7129Z" fill="#D51125"/>
<path d="M672.886 41.7559L677.633 41.7617L677.615 52.1216L685.276 41.7791L690.028 41.7907L689.993 58.4665L685.241 58.4549L685.264 48.1996L677.598 58.4374L672.851 58.4316L672.886 41.7559Z" fill="#D51125"/>
<path d="M706.569 33.539L709.559 34.9974C709.144 36.2408 708.315 37.275 707.177 37.9955C706.038 38.6172 704.695 38.9252 703.247 38.9194C701.799 38.9194 700.561 38.6056 699.324 37.8735C698.191 37.2518 697.362 36.2117 696.953 34.9683L700.053 33.5273C700.153 34.2536 700.567 34.7708 701.186 35.2879C701.805 35.7062 702.424 35.9096 703.253 35.9154C704.082 35.9154 704.8 35.712 705.425 35.2995C705.945 34.7824 706.359 34.2653 706.564 33.539H706.569ZM694.775 41.8013L699.423 41.8129L699.399 52.167L707.165 41.8246L711.813 41.8362L711.778 58.512L707.13 58.5003L707.153 48.245L699.388 58.4829L694.74 58.4713L694.775 41.7955V41.8013Z" fill="#D51125"/>
<path d="M524.537 74.2013L518.751 74.1897L518.704 95.5254L513.747 95.5138L513.793 74.1781L508.007 74.1665L508.019 69.8203L524.542 69.8494L524.537 74.2013Z" fill="#D51125"/>
<path d="M533.4 82.5041C532.057 82.5041 530.918 83.0154 530.089 83.8463C529.26 84.7759 528.74 85.9148 528.845 87.2628C528.845 88.6108 529.254 89.7496 530.077 90.5805C531.006 91.516 532.039 91.9285 533.382 91.9343C534.725 91.9343 535.864 91.5276 536.693 90.5921C537.627 89.767 538.041 88.6282 538.041 87.2802C538.041 85.9322 537.633 84.7934 536.704 83.9625C535.881 83.027 534.743 82.5099 533.4 82.5041ZM529.248 93.3695L529.225 104.45L524.577 104.438L524.63 78.8552L529.278 78.8668V81.0399C529.896 80.2148 530.62 79.4885 531.549 79.076C532.477 78.5588 533.511 78.3555 534.754 78.3555C537.131 78.3555 539.092 79.1922 540.634 80.9585C542.181 82.6203 542.899 84.6946 542.893 87.1756C542.893 89.767 542.158 91.9401 540.61 93.5903C539.057 95.2462 536.99 96.0713 534.614 96.0655C533.476 96.0655 532.448 95.8563 531.619 95.438C530.691 95.0196 529.867 94.2933 529.248 93.3637V93.3695Z" fill="#D51125"/>
<path d="M555.19 82.5511C553.742 82.5511 552.708 83.0624 551.78 83.8933C550.951 84.8229 550.536 85.9618 550.53 87.3098C550.53 88.6578 550.939 89.7966 551.762 90.6275C552.691 91.563 553.724 91.9755 555.166 91.9813C556.509 91.9813 557.543 91.5746 558.372 90.6391C559.306 89.814 559.72 88.6752 559.72 87.3272C559.72 85.9792 559.312 84.8404 558.489 83.9049C557.56 83.074 556.527 82.5569 555.184 82.5511H555.19ZM559.323 81.1101V78.937L563.977 78.9486L563.942 95.6244L559.294 95.6128V93.4397C558.675 94.3694 557.951 95.0957 557.023 95.5082C556.194 95.9208 555.266 96.1241 554.127 96.1241C551.646 96.1241 549.585 95.2874 548.037 93.6257C546.49 91.8593 545.673 89.7908 545.673 87.304C545.673 84.7125 546.402 82.644 547.956 80.9881C549.509 79.2334 551.47 78.4083 553.952 78.4141C555.09 78.4141 556.223 78.6233 557.046 79.1462C557.975 79.5645 558.699 80.2908 559.312 81.1159L559.323 81.1101Z" fill="#D51125"/>
<path d="M568.28 95.6289L568.315 78.9531L573.068 78.9647L573.056 84.8681L579.561 84.8797L579.572 78.9764L584.325 78.988L584.29 95.658L579.537 95.6521L579.555 88.9179L573.045 88.9063L573.033 95.6347L568.28 95.6289Z" fill="#D51125"/>
<path d="M601.263 79.542L601.251 84.0973C600.737 83.6848 600.118 83.2665 599.499 83.0573C598.881 82.7435 598.262 82.6389 597.433 82.6389C595.985 82.6389 594.747 83.1503 593.918 84.0799C593.089 84.905 592.674 86.0438 592.773 87.2872C592.773 88.7398 593.182 89.8787 594.11 90.7096C595.039 91.645 596.171 92.0576 597.619 92.0634C598.238 92.0634 598.857 91.9646 599.482 91.7554C600.101 91.4475 600.726 91.1395 601.239 90.6224L601.228 95.1777C600.609 95.5903 599.885 95.7936 599.161 96.0028C598.437 96.2062 597.713 96.2062 596.989 96.2062C595.646 96.2062 594.513 95.9912 593.375 95.5786C592.242 95.1603 591.314 94.5386 590.485 93.8123C589.655 93.086 589.042 92.1505 588.529 91.0117C588.12 89.9774 587.916 88.734 587.916 87.386C587.916 86.038 588.126 84.6958 588.645 83.557C589.165 82.4181 589.889 81.4885 590.823 80.6634C591.652 79.9429 592.476 79.4258 593.614 79.0133C594.542 78.7053 595.681 78.502 596.82 78.502C597.649 78.502 598.472 78.6065 599.196 78.7111C599.92 78.9203 600.644 79.1295 601.263 79.542Z" fill="#D51125"/>
<path d="M605.292 79.0293L621.097 79.0642L621.062 95.7399L616.309 95.7283L616.333 83.0907L609.933 83.0791L609.904 95.7167L605.257 95.7051L605.292 79.0293Z" fill="#D51125"/>
<path d="M633.872 92.1395C635.215 92.1395 636.353 91.7328 637.182 90.7973C638.117 89.8676 638.531 88.8334 638.531 87.4854C638.531 86.1374 638.122 85.1031 637.194 84.1677C636.371 83.2322 635.232 82.7151 633.889 82.7093C632.546 82.7093 631.408 83.2206 630.48 84.1502C629.65 84.9753 629.131 86.1141 629.131 87.4621C629.131 88.8101 629.645 89.8444 630.468 90.7799C631.396 91.7153 632.529 92.2325 633.872 92.1337V92.1395ZM633.901 78.5723C635.244 78.5723 636.377 78.7873 637.515 79.1998C638.753 79.6181 639.681 80.1353 640.61 80.9661C641.433 81.6924 642.157 82.7325 642.671 83.8713C643.185 84.9056 643.389 86.149 643.389 87.497C643.389 88.845 643.179 90.0884 642.659 91.1227C642.139 92.2615 641.415 93.1912 640.586 94.0162C639.658 94.7367 638.724 95.3584 637.486 95.771C636.453 96.1835 635.215 96.2823 633.872 96.2823C632.529 96.2823 631.291 96.1719 630.153 95.7594C629.02 95.341 627.986 94.7193 627.163 93.993C626.235 93.1621 625.616 92.2267 625.102 91.0878C624.588 90.0536 624.279 88.8101 624.285 87.4621C624.285 86.1141 624.6 84.8707 625.12 83.8365C625.639 82.6976 626.258 81.6634 627.192 80.9429C628.022 80.1178 629.055 79.6007 630.194 79.1882C631.332 78.7756 632.57 78.5723 633.913 78.5723H633.901Z" fill="#D51125"/>
<path d="M655.586 82.7599C654.243 82.7599 653.105 83.2712 652.276 84.1021C651.342 85.0318 650.927 86.1706 650.927 87.5186C650.927 88.8666 651.336 90.0055 652.264 90.8364C653.087 91.7718 654.226 92.1844 655.569 92.1902C656.912 92.1902 658.05 91.7834 658.879 90.848C659.708 90.0229 660.228 88.8841 660.228 87.4315C660.228 86.1881 659.819 85.0492 658.891 84.2183C658.068 83.2829 656.929 82.7657 655.586 82.7599ZM651.435 93.6253L651.412 104.706L646.659 104.694L646.711 79.111L651.464 79.1226V81.2957C651.978 80.4706 652.807 79.7443 653.63 79.3318C654.559 78.8147 655.697 78.6113 656.836 78.6113C659.317 78.6113 661.273 79.448 662.82 81.2144C664.263 82.8761 665.086 84.9504 665.08 87.5361C665.08 90.0229 664.245 92.196 662.692 93.8461C661.139 95.5021 659.177 96.3272 656.696 96.3214C655.662 96.3214 654.629 96.1122 653.7 95.6938C652.772 95.2755 652.048 94.5492 651.435 93.6195V93.6253Z" fill="#D51125"/>
<path d="M680.576 83.2235L676.033 83.2119L676.004 95.8495L671.257 95.8378L671.28 83.2061L666.633 83.1945L666.645 79.1562L680.587 79.1853L680.576 83.2235Z" fill="#D51125"/>
</g>
<g clip-path="url(#clip1_337_20916)">
<path d="M140.425 -0.00195312V39.0494H131.471V9.0099C128.374 9.09334 125.445 9.34367 122.684 9.594C120.843 9.76088 119.085 10.0112 117.412 10.2615C86.7825 14.684 73.8111 29.2031 73.6438 29.37L70.38 33.0415L66.9489 29.4534C66.9489 29.4534 56.4881 18.8562 35.0645 12.9317C33.7255 12.5979 32.3028 12.1807 30.8802 11.847C24.4363 10.345 17.1557 9.34367 8.95441 9.0099V76.6822H0V-0.00195312H4.43536C6.0254 -0.00195312 7.53175 -0.00195312 9.0381 -0.00195312C10.5444 -0.00195312 12.0508 0.164933 13.4735 0.248376C24.3527 0.91592 33.7255 2.91855 41.5083 5.42185C43.0147 5.9225 44.521 6.42316 45.9437 6.92382C57.9945 11.3463 65.9446 16.8535 70.0453 20.2747C74.648 16.2694 84.1882 9.51056 99.7538 4.92119C100.256 4.7543 100.758 4.58742 101.26 4.50397C101.846 4.33709 102.432 4.1702 103.018 4.00331C104.859 3.50266 106.867 3.08544 108.876 2.66822C116.658 1.08281 125.613 0.0814899 135.906 0.0814899H140.342L140.425 -0.00195312Z" fill="#2A4B9B"/>
<path d="M140.425 119.239V128.001C140.425 128.668 140.425 129.253 140.425 129.92C140.342 132.006 140.007 134.009 139.505 135.928C138.333 140.517 136.074 144.439 132.81 147.527C127.956 152.116 121.094 154.703 112.893 155.036C112.223 155.036 111.637 155.036 110.968 155.036H95.4858C88.9583 155.036 83.6024 156.372 78.916 159.125C77.4096 160.043 75.987 161.044 74.648 162.296C74.648 162.296 73.8948 162.964 73.5601 163.381L70.38 166.468L67.2836 163.381C66.5304 162.63 65.6936 161.879 64.9404 161.295C59.6682 157.039 53.308 155.036 45.3579 155.036H29.8759C20.7541 155.036 13.2224 152.45 7.95017 147.443C2.84531 142.603 0.167358 135.845 0.167358 127.917V71.8438H9.12177V127.917C9.12177 139.349 16.4025 145.941 29.2064 146.108C29.3738 146.108 29.6249 146.108 29.8759 146.108H45.3579C55.3165 146.108 63.6014 148.778 70.4637 154.202C77.326 148.695 85.6109 146.108 95.5695 146.108H111.051C124.19 146.108 131.722 139.433 131.722 127.834V119.073H140.676L140.425 119.239Z" fill="#2A4B9B"/>
<path d="M43.0983 64.4987L42.094 63.0802L41.843 63.2471L38.9976 64.9159L38.4955 65.1663L39.4998 66.5848L44.5209 74.0112H49.6258L43.0983 64.4987ZM44.6883 55.5703L39.5835 62.9967L38.4118 64.7491H38.9976L41.843 65.1663H42.5125L43.0983 64.4987L49.4584 55.5703H44.6883ZM35.1481 63.0802V66.6682H41.843V63.0802H35.1481ZM31.968 55.5703V74.0112H36.4034V55.5703H31.968Z" fill="#2A4B9B"/>
<path d="M71.2167 60.9925C70.7146 59.8243 69.9614 58.823 69.0409 57.9885C68.1203 57.1541 66.9487 56.4866 65.6934 55.9859C64.4381 55.4852 63.0155 55.3184 61.5091 55.3184C60.0028 55.3184 58.5801 55.5687 57.3248 55.9859C56.0695 56.4866 54.9816 57.1541 53.9774 57.9885C53.0568 58.823 52.3036 59.8243 51.8015 60.9925C51.2994 62.1607 51.0483 63.4123 51.0483 64.8309C51.0483 66.2494 51.2994 67.501 51.8015 68.6692C52.3036 69.8374 53.0568 70.8388 53.9774 71.6732C54.8979 72.5076 56.0695 73.1752 57.3248 73.6758C58.5801 74.1765 60.0028 74.3434 61.5091 74.3434C63.0155 74.3434 64.4381 74.093 65.6934 73.6758C66.9487 73.2586 68.1203 72.5911 69.0409 71.6732C69.9614 70.8388 70.7146 69.8374 71.2167 68.6692C71.7188 67.501 71.9699 66.2494 71.9699 64.8309C71.9699 63.4123 71.7188 62.1607 71.2167 60.9925ZM67.0324 67.2507C66.6976 68.0017 66.2792 68.5858 65.7771 69.0865C65.1913 69.5871 64.6055 70.0043 63.8523 70.3381C63.0991 70.5884 62.346 70.7553 61.5091 70.7553C60.6722 70.7553 59.8354 70.5884 59.0822 70.3381C58.329 70.0043 57.7432 69.6706 57.1574 69.0865C56.6553 68.5858 56.2369 67.9183 55.9021 67.2507C55.5674 66.5832 55.4837 65.7487 55.4837 64.8309C55.4837 63.913 55.6511 63.162 55.9021 62.411C56.2369 61.7435 56.6553 61.0759 57.1574 60.5753C57.6595 60.0746 58.329 59.6574 59.0822 59.3236C59.8354 59.0733 60.5886 58.9064 61.5091 58.9064C62.4297 58.9064 63.1828 59.0733 63.8523 59.3236C64.6055 59.6574 65.1913 59.9912 65.7771 60.5753C66.3629 61.0759 66.7813 61.7435 67.0324 62.411C67.3671 63.162 67.4508 63.913 67.4508 64.8309C67.4508 65.7487 67.2834 66.4997 67.0324 67.2507Z" fill="#2A4B9B"/>
<path d="M77.8279 55.5678L77.5769 63.0777C77.5769 64.6631 77.4095 65.9982 77.2421 67.083C77.0747 68.1677 76.74 69.0856 76.3216 69.6697C75.9031 70.2538 75.3173 70.5041 74.5642 70.5041C74.3131 70.5041 74.0621 70.5041 73.811 70.4207L73.5599 74.0087C73.5599 74.0087 74.3131 74.1756 74.7315 74.2591C75.0663 74.2591 75.401 74.2591 75.8195 74.2591C76.9074 74.2591 77.8279 74.0087 78.5811 73.5081C79.3343 73.0074 79.9201 72.2564 80.3385 71.2551C80.7569 70.2538 81.0917 69.0856 81.2591 67.6671C81.4264 66.2485 81.5938 64.6631 81.6775 62.8274L81.8449 58.989H88.4561V73.9253H92.8914V55.4844H78.079L77.8279 55.5678Z" fill="#2A4B9B"/>
<path d="M99.754 55.5678L99.5029 63.0777C99.5029 64.6631 99.3355 65.9982 99.1682 67.083C99.0008 68.1677 98.666 69.0856 98.2476 69.6697C97.8292 70.2538 97.2434 70.5041 96.4902 70.5041C96.2391 70.5041 95.9881 70.5041 95.737 70.4207L95.486 74.0087C95.486 74.0087 96.2391 74.1756 96.6576 74.2591C96.9923 74.2591 97.3271 74.2591 97.7455 74.2591C98.8334 74.2591 99.754 74.0087 100.507 73.5081C101.26 73.0074 101.846 72.2564 102.265 71.2551C102.683 70.2538 103.018 69.0856 103.185 67.6671C103.352 66.2485 103.52 64.6631 103.604 62.8274L103.771 58.989H110.382V73.9253H114.817V55.4844H100.005L99.754 55.5678Z" fill="#2A4B9B"/>
<path d="M123.521 62.9967V66.3345H132.81V62.9967H123.521ZM123.855 70.5901V58.9915H133.981V55.5703H119.42V74.0112H134.316V70.5901H123.855Z" fill="#2A4B9B"/>
<path d="M140.342 55.5703L140.091 61.3279C140.091 62.663 139.923 63.9146 139.839 64.9994C139.756 66.0841 139.505 67.0855 139.254 67.9199C139.003 68.7543 138.668 69.4219 138.249 69.8391C137.831 70.2563 137.329 70.5066 136.659 70.5066L141.43 71.0907C141.43 71.0907 141.932 70.7569 142.183 70.5066C142.35 70.3397 142.517 70.0894 142.685 69.8391C143.02 69.255 143.271 68.5874 143.438 67.753C143.605 66.9186 143.773 66.0007 143.856 64.9994C143.94 63.9981 144.024 62.9133 144.107 61.7451V59.0749H150.802V72.092H155.238V55.5703H140.425H140.342ZM135.99 70.5901V77.9331H140.091V74.0947H153.648V77.9331H157.748V70.5901H135.906H135.99Z" fill="#2A4B9B"/>
<path d="M182.017 64.4153L181.264 63.0802L180.762 63.3305L180.26 63.6643L178.084 64.9159L177.582 65.1663L178.419 66.5848L181.766 72.4258L182.687 74.0112H187.875L182.101 64.3318L182.017 64.4153ZM182.687 55.5703L180.092 59.9928L178.335 63.0802L177.331 64.8325H177.917L180.092 65.1663H180.929L181.431 65.3331L182.017 64.4153L187.457 55.5703H182.77H182.687ZM174.151 63.0802V66.6682H180.176V63.0802H174.151ZM171.138 55.5703V74.0112H175.49V55.5703H171.138ZM166.368 63.0802V66.6682H172.393V63.0802H166.368ZM168.125 63.0802L163.774 55.6538H159.087L164.527 64.4153L165.113 65.3331L166.368 65.1663L168.627 64.9159H169.213L168.209 63.0802H168.125ZM168.627 64.9159L166.368 63.6643L165.364 63.0802L164.611 64.4153L161.096 70.3397L158.836 74.0947H163.941L168.293 66.6682L169.13 65.2497L168.627 64.9994V64.9159Z" fill="#2A4B9B"/>
<path d="M204.11 55.5703L201.014 59.5756L196.83 65.0828L194.905 67.6696V55.6538H190.469V74.0947H194.654L197.332 70.6735L201.683 64.9159L203.859 62.0789V74.0947H208.295V55.6538H204.11V55.5703Z" fill="#2A4B9B"/>
<path d="M48.7889 102.797V91.7824L43.3493 100.878H41.4245L35.985 92.0328V102.88H31.968V84.4395H35.4828L42.4288 95.8711L49.2074 84.4395H52.7222V102.88H48.7052L48.7889 102.797Z" fill="#2A4B9B"/>
<path d="M56.1534 93.534C56.1534 88.0268 60.4214 84.0215 66.2795 84.0215C72.1375 84.0215 76.4055 88.0268 76.4055 93.534C76.4055 99.0412 72.0538 103.047 66.2795 103.047C60.5051 103.047 56.1534 98.9578 56.1534 93.534ZM72.0538 93.534C72.0538 90.0294 69.5432 87.6095 66.2795 87.6095C63.0157 87.6095 60.5051 90.0294 60.5051 93.534C60.5051 97.0386 63.0157 99.4585 66.2795 99.4585C69.5432 99.4585 72.0538 97.0386 72.0538 93.534Z" fill="#2A4B9B"/>
<path d="M78.4976 93.534C78.4976 87.9433 82.7655 84.0215 88.5399 84.0215C91.72 84.0215 94.3979 85.1897 96.1553 87.2758L93.3937 89.7791C92.1384 88.3605 90.632 87.6095 88.7073 87.6095C85.2761 87.6095 82.7656 90.0294 82.7656 93.534C82.7656 97.0386 85.1924 99.4585 88.7073 99.4585C90.5484 99.4585 92.1384 98.7075 93.3937 97.2889L96.1553 99.7922C94.3979 101.962 91.72 103.13 88.5399 103.13C82.7655 103.13 78.4976 99.1247 78.4976 93.6174V93.534Z" fill="#2A4B9B"/>
<path d="M106.114 95.368H103.185V102.794H98.917V84.3535H103.185V91.7799H106.281L111.135 84.3535H115.654L109.629 93.2819L115.905 102.794H111.051L106.281 95.368H106.114Z" fill="#2A4B9B"/>
<path d="M134.149 97.621C134.149 100.875 131.638 102.794 126.952 102.794H117.83V84.3535H126.45C130.717 84.3535 133.228 86.1058 133.228 89.1098C133.228 90.9455 132.224 92.3641 130.634 93.1985C132.893 93.866 134.149 95.368 134.149 97.621ZM122.098 91.9468H126.115C127.956 91.9468 128.96 91.1958 128.96 89.6939C128.96 88.1919 127.956 87.4409 126.115 87.4409H122.098V91.9468ZM129.797 97.2872C129.797 95.7018 128.793 95.0342 126.784 95.0342H122.098V99.707H126.784C128.793 99.707 129.797 98.9561 129.797 97.3706V97.2872Z" fill="#2A4B9B"/>
<path d="M153.48 96.3693C153.48 100.625 150.635 102.794 145.865 102.794H137.496V84.3535H141.764V90.4449H146.451C150.886 90.4449 153.48 92.4475 153.48 96.3693ZM149.212 96.4528C149.212 94.4501 147.873 93.6157 145.697 93.6157H141.848V99.707H145.697C147.873 99.707 149.212 98.6223 149.212 96.5362V96.4528ZM155.823 84.3535H160.091V102.794H155.823V84.3535Z" fill="#2A4B9B"/>
</g>
<path d="M272.013 76.6595L280.473 65.6435L280.401 68.0555L272.337 57.4355H277.341L282.993 64.9955H281.085L286.773 57.4355H291.633L283.497 68.0555L283.533 65.6435L291.957 76.6595H286.881L280.941 68.6315L282.813 68.8835L276.981 76.6595H272.013Z" fill="#D51125"/>
<defs>
<clipPath id="clip0_337_20916">
<rect width="351.384" height="166.636" fill="white" transform="translate(360.44)"/>
</clipPath>
<clipPath id="clip1_337_20916">
<rect width="208.295" height="166.636" fill="white"/>
</clipPath>
</defs>
</svg>
